<svg xmlns="http://www.w3.org/2000/svg" version="1.1" xmlns:xlink="http://www.w3.org/1999/xlink" xmlns:svgjs="http://svgjs.dev/svgjs" width="1000" height="1000" viewBox="0 0 1000 1000"><rect width="1000" height="1000" fill="#5f4dee"></rect><g transform="matrix(0.7,0,0,0.7,149.57575757575756,333.45822245798684)"><svg viewBox="0 0 396 189" data-background-color="#5f4dee" preserveAspectRatio="xMidYMid meet" height="477" width="1000" xmlns="http://www.w3.org/2000/svg" xmlns:xlink="http://www.w3.org/1999/xlink"><g id="tight-bounds" transform="matrix(1,0,0,1,0.2400000000000091,-0.2310693158415944)"><svg viewBox="0 0 395.52 189.4621386316832" height="189.4621386316832" width="395.52"><g><svg viewBox="0 0 533.0390365311347 255.336559049759" height="189.4621386316832" width="395.52"><g><rect width="5.47328361377817" height="110.85523547746409" x="117.71778534202102" y="72.24066178614746" fill="#ffffff" opacity="1" stroke-width="0" stroke="transparent" fill-opacity="1" class="rect-n$-0" data-fill-palette-color="primary" rx="1%" id="n$-0" data-palette-color="#ffffff"></rect></g><g transform="matrix(1,0,0,1,137.5190365311347,81.47859807593612)"><svg viewBox="0 0 395.52 92.37936289788675" height="92.37936289788675" width="395.52"><g id="textblocktransform"><svg viewBox="0 0 395.52 92.37936289788675" height="92.37936289788675" width="395.52" id="textblock"><g><svg viewBox="0 0 395.52 60.69218207414359" height="60.69218207414359" width="395.52"><g transform="matrix(1,0,0,1,0,0)"><svg width="395.52" viewBox="1.75 -32.1 213.08 32.7" height="60.69218207414359" data-palette-color="#ffffff"><path d="M26.9 0L25.3 0 6.5-27.9 6.5-1.6Q6.5-0.9 7.2-0.9L7.2-0.9 9.55-0.9 9.55 0 1.75 0 1.75-0.9 4.1-0.9Q4.8-0.9 4.8-1.6L4.8-1.6 4.8-30Q4.8-30.6 4.1-30.6L4.1-30.6 1.75-30.6 1.75-31.5 9.1-31.5 25.2-7.7 25.2-29.9Q25.2-30.6 24.5-30.6L24.5-30.6 22.15-30.6 22.15-31.5 29.95-31.5 29.95-30.6 27.6-30.6Q26.9-30.6 26.9-30L26.9-30 26.9 0ZM51.55-21.9L51.55-21.9 51.55-1.6Q51.55-0.9 52.25-0.9L52.25-0.9 54.6-0.9 54.6 0 52.15 0Q49.15 0 47.95 0.3L47.95 0.3 47.95-6.45Q46.25 0.6 40.45 0.6L40.45 0.6Q37.85 0.6 36.05-1.28 34.25-3.15 34.25-7L34.25-7 34.25-20Q34.25-20.7 33.55-20.7L33.55-20.7 31.2-20.7 31.2-21.6 33.65-21.6Q36.65-21.6 37.85-21.9L37.85-21.9 37.85-6.35Q37.85-3.8 38.97-2.58 40.1-1.35 41.95-1.35L41.95-1.35Q44.6-1.35 46.27-4.58 47.95-7.8 47.95-13.85L47.95-13.85 47.95-20Q47.95-20.7 47.25-20.7L47.25-20.7 44.9-20.7 44.9-21.6 47.35-21.6Q50.35-21.6 51.55-21.9ZM63-26.9L63-26.9 63.75-26.9 63.75-21.6 68.75-21.6 68.75-20.7 63.75-20.7 63.75-3.75Q63.75-1.05 65.25-1.05L65.25-1.05Q65.95-1.05 66.47-1.7 67-2.35 67-3.2 67-4.05 66.84-4.8L66.84-4.8 67.8-4.95Q68-4.2 68-3.3L68-3.3Q68-1.5 66.92-0.45 65.84 0.6 64.09 0.6 62.35 0.6 61.25-0.83 60.15-2.25 60.15-5.1L60.15-5.1 60.15-20Q60.15-20.7 59.45-20.7L59.45-20.7 57.1-20.7 57.1-21.6 59.55-21.6Q61.15-21.6 63-26.9ZM84.49-22.2Q86.44-22.2 87.67-20.55 88.89-18.9 88.89-16.4 88.89-13.9 86.84-13.9L86.84-13.9Q85.64-13.9 84.89-14.65L84.89-14.65Q85.54-16.1 85.54-17.6L85.54-17.6Q85.54-20.25 83.34-20.25L83.34-20.25Q81.49-20.25 80.07-17.18 78.64-14.1 78.64-8.25L78.64-8.25 78.64-1.6Q78.64-0.9 79.34-0.9L79.34-0.9 82.69-0.9 82.69 0 71.99 0 71.99-0.9 74.34-0.9Q75.04-0.9 75.04-1.6L75.04-1.6 75.04-20Q75.04-20.7 74.34-20.7L74.34-20.7 71.99-20.7 71.99-21.6 74.44-21.6Q77.44-21.6 78.64-21.9L78.64-21.9 78.64-15.5Q79.44-18.95 80.99-20.58 82.54-22.2 84.49-22.2ZM94.44-1.6L94.44-1.6 94.44-20Q94.44-20.7 93.74-20.7L93.74-20.7 91.39-20.7 91.39-21.6 93.84-21.6Q96.84-21.6 98.04-21.9L98.04-21.9 98.04-1.5Q98.04-0.9 98.74-0.9L98.74-0.9 101.09-0.9 101.09 0 91.39 0 91.39-0.9 93.74-0.9Q94.44-0.9 94.44-1.6ZM94.57-27.13Q93.89-27.8 93.89-28.8 93.89-29.8 94.57-30.48 95.24-31.15 96.24-31.15 97.24-31.15 97.92-30.48 98.59-29.8 98.59-28.8 98.59-27.8 97.92-27.13 97.24-26.45 96.24-26.45 95.24-26.45 94.57-27.13ZM118.69-30.65L118.69-30.65Q114.14-30.65 111.36-26.65 108.59-22.65 108.59-15.7 108.59-8.75 111.39-4.8 114.19-0.85 118.41-0.85 122.64-0.85 124.31-3.03 125.99-5.2 125.99-9.4L125.99-9.4 125.99-11.4Q125.99-12 125.29-12L125.29-12 121.94-12 121.94-12.9 132.14-12.9 132.14-12 130.79-12Q130.09-12 130.09-11.4L130.09-11.4 130.09-9.6Q130.09-5.15 126.89-2.27 123.69 0.6 118.69 0.6L118.69 0.6Q112.39 0.6 108.36-3.75 104.34-8.1 104.34-15.73 104.34-23.35 108.31-27.73 112.29-32.1 118.69-32.1L118.69-32.1Q121.94-32.1 125.19-30.45L125.19-30.45Q126.24-29.9 126.69-29.9L126.69-29.9Q127.44-29.9 127.49-30.95L127.49-30.95 127.54-31.8 128.49-31.8 128.49-23.15 127.59-23.15Q127.14-27 124.71-28.83 122.29-30.65 118.69-30.65ZM144.24-22.2L144.24-22.2Q147.69-22.2 149.69-19.9 151.69-17.6 151.69-13.15L151.69-13.15Q151.69-12.25 151.59-11.15L151.59-11.15 137.94-11.15 137.94-10.8Q137.94-6.05 139.66-3.33 141.39-0.6 144.11-0.6 146.84-0.6 148.59-2 150.34-3.4 150.99-6L150.99-6 151.94-5.8Q151.34-2.75 149.19-1.07 147.04 0.6 144.24 0.6L144.24 0.6Q139.89 0.6 137.01-2.45 134.14-5.5 134.14-10.78 134.14-16.05 137.04-19.13 139.94-22.2 144.24-22.2ZM148.24-14.85L148.24-14.85Q148.24-21 143.64-21L143.64-21Q141.34-21 139.71-18.5 138.09-16 137.99-12.15L137.99-12.15 148.04-12.15Q148.24-13.85 148.24-14.85ZM176.78-14.6L176.78-14.6 176.78-1.5Q176.78-0.9 177.48-0.9L177.48-0.9 179.83-0.9 179.83 0 170.83 0 170.83-0.9 172.48-0.9Q173.18-0.9 173.18-1.5L173.18-1.5 173.18-15.25Q173.18-17.8 172.06-19.03 170.93-20.25 169.08-20.25L169.08-20.25Q166.48-20.25 164.78-17.18 163.08-14.1 163.08-8.35L163.08-8.35 163.08-1.6Q163.08-0.9 163.78-0.9L163.78-0.9 165.43-0.9 165.43 0 156.43 0 156.43-0.9 158.78-0.9Q159.48-0.9 159.48-1.5L159.48-1.5 159.48-20Q159.48-20.7 158.78-20.7L158.78-20.7 156.43-20.7 156.43-21.6 158.88-21.6Q161.88-21.6 163.08-21.9L163.08-21.9 163.08-15.1Q164.78-22.2 170.58-22.2L170.58-22.2Q173.18-22.2 174.98-20.33 176.78-18.45 176.78-14.6ZM186.88-1.6L186.88-1.6 186.88-20Q186.88-20.7 186.18-20.7L186.18-20.7 183.83-20.7 183.83-21.6 186.28-21.6Q189.28-21.6 190.48-21.9L190.48-21.9 190.48-1.5Q190.48-0.9 191.18-0.9L191.18-0.9 193.53-0.9 193.53 0 183.83 0 183.83-0.9 186.18-0.9Q186.88-0.9 186.88-1.6ZM187.01-27.13Q186.33-27.8 186.33-28.8 186.33-29.8 187.01-30.48 187.68-31.15 188.68-31.15 189.68-31.15 190.36-30.48 191.03-29.8 191.03-28.8 191.03-27.8 190.36-27.13 189.68-26.45 188.68-26.45 187.68-26.45 187.01-27.13ZM207.13-22.2L207.13-22.2Q210.58-22.2 212.58-19.9 214.58-17.6 214.58-13.15L214.58-13.15Q214.58-12.25 214.48-11.15L214.48-11.15 200.83-11.15 200.83-10.8Q200.83-6.05 202.55-3.33 204.28-0.6 207-0.6 209.73-0.6 211.48-2 213.23-3.4 213.88-6L213.88-6 214.83-5.8Q214.23-2.75 212.08-1.07 209.93 0.6 207.13 0.6L207.13 0.6Q202.78 0.6 199.9-2.45 197.03-5.5 197.03-10.78 197.03-16.05 199.93-19.13 202.83-22.2 207.13-22.2ZM211.13-14.85L211.13-14.85Q211.13-21 206.53-21L206.53-21Q204.23-21 202.6-18.5 200.98-16 200.88-12.15L200.88-12.15 210.93-12.15Q211.13-13.85 211.13-14.85Z" opacity="1" transform="matrix(1,0,0,1,0,0)" fill="#ffffff" class="undefined-text-0" data-fill-palette-color="primary" id="text-0"></path></svg></g></svg></g><g transform="matrix(1,0,0,1,0,75.02014964947911)"><svg viewBox="0 0 300.5952 17.35921324840764" height="17.35921324840764" width="300.5952"><g transform="matrix(1,0,0,1,0,0)"><svg width="300.5952" viewBox="2.15 -38.23 804.86 46.48" height="17.35921324840764" data-palette-color="#ffffff"><path d="M32.32-5.79L32.32-5.79Q33.33-5.79 33.33-4.66L33.33-4.66Q33.33-3.74 31.91-2.81L31.91-2.81Q29.27-1.07 27.47-0.54L27.47-0.54Q24.07 0.46 20.34 0.46 16.6 0.46 13.15-0.87 9.69-2.2 7.25-4.59L7.25-4.59Q2.15-9.62 2.15-17.58L2.15-17.58Q2.15-21.41 3.59-24.62 5.03-27.83 7.57-30.13L7.57-30.13Q12.94-34.99 21.07-34.99L21.07-34.99Q25.63-34.99 29.1-33.42L29.1-33.42Q32.79-31.79 32.79-30.64L32.79-30.64Q32.79-30.18 32.48-29.83 32.18-29.49 31.79-29.49L31.79-29.49Q31.01-29.49 30.37-30.19 29.74-30.88 28.65-31.45 27.56-32.01 26.27-32.42L26.27-32.42Q23.63-33.23 21.47-33.23 19.31-33.23 17.9-32.93L17.9-32.93 17.9-1.64Q19.6-1.34 20.92-1.34 22.24-1.34 23.61-1.51 24.98-1.68 26.29-2.08L26.29-2.08Q29.25-2.95 30.74-4.66L30.74-4.66Q31.27-5.3 31.59-5.54 31.91-5.79 32.32-5.79ZM39.28 0L39.28-26.07 49.78-26.07 49.78-18.41Q51.46-22.58 53.4-24.55 55.34-26.51 57.3-26.51L57.3-26.51Q58.4-26.51 59.04-25.94 59.69-25.37 59.69-24.66 59.69-23.95 59.49-23.54 59.3-23.12 58.98-22.83L58.98-22.83Q58.32-22.22 57.74-22.22L57.74-22.22Q56.81-22.22 56.37-22.41L56.37-22.41Q55.61-22.75 55.03-22.75 54.44-22.75 53.54-21.81 52.63-20.87 51.8-19.21L51.8-19.21Q49.78-15.16 49.78-10.42L49.78-10.42 49.78 0 39.28 0ZM85.49-5.93L85.49-5.93Q86.45-5.93 86.45-5.05L86.45-5.05Q86.45-4.39 85.59-3.49L85.59-3.49Q81.73 0.46 75.02 0.46L75.02 0.46Q68.99 0.46 64.86-3.17L64.86-3.17Q60.59-6.96 60.59-12.74L60.59-12.74Q60.59-18.65 64.45-22.46L64.45-22.46Q68.53-26.51 75.29-26.51L75.29-26.51Q80.71-26.51 84.39-23.22L84.39-23.22Q88.37-19.68 88.37-13.92L88.37-13.92Q88.37-13.09 88.33-12.16L88.33-12.16 72.21-12.16 72.21-1.68Q73.87-1.34 75.95-1.34L75.95-1.34Q80.34-1.34 83.44-4.25L83.44-4.25Q84.08-4.88 84.35-5.25L84.35-5.25Q84.91-5.93 85.49-5.93ZM78.97-13.94L78.97-24.27Q77.39-24.73 75.39-24.73 73.38-24.73 72.21-24.46L72.21-24.46 72.21-13.94 78.97-13.94ZM110.91 0L110.91-1.61Q107.78 0.46 103.97 0.46L103.97 0.46Q98.92 0.46 95.87-2.08L95.87-2.08Q92.69-4.69 92.69-9.33L92.69-9.33Q92.69-13.43 95.84-16.06L95.84-16.06Q99.06-18.73 104.31-18.73L104.31-18.73Q107.83-18.73 110.91-17.38L110.91-17.38 110.91-24.1Q108.68-24.73 106.99-24.73 105.29-24.73 104.12-24.58 102.95-24.44 101.9-24.15L101.9-24.15Q99.63-23.51 98.45-22.44L98.45-22.44Q97.77-21.8 97.21-21.8 96.65-21.8 96.35-22.08 96.06-22.36 96.06-22.71 96.06-23.05 96.18-23.33 96.31-23.61 96.65-23.9L96.65-23.9Q97.38-24.54 99.09-25.17L99.09-25.17Q102.63-26.51 106.19-26.51L106.19-26.51Q117.03-26.51 120.04-21.34L120.04-21.34Q121.35-19.04 121.35-15.31L121.35-15.31 121.35 0 110.91 0ZM110.91-3.71L110.91-15.48Q107.83-16.97 104.78-16.97L104.78-16.97Q104.29-16.97 103.85-16.89L103.85-16.89 103.85-1.37Q103.97-1.34 104.12-1.34 104.26-1.34 104.41-1.34L104.41-1.34Q107.76-1.34 110.91-3.71L110.91-3.71ZM139.03 0.46L139.03 0.46Q129.46 0.46 129.46-8.28L129.46-8.28 129.43-24.29 126.63-24.17Q125.31-24.17 125.31-25.17 125.31-26.17 126.72-26.17L126.72-26.17 129.07-26.07 129.43-26.07 129.43-29.86 139.91-34.55 139.91-26.07 143.18-26.07 145.5-26.17Q146.94-26.17 146.94-25.15L146.94-25.15Q146.94-24.68 146.54-24.43 146.13-24.17 145.62-24.17L145.62-24.17 142.59-24.29 139.91-24.29 139.91-1.34Q142.76-1.39 144.67-2.98L144.67-2.98Q145.57-3.66 145.95-4.74 146.33-5.81 146.63-6.12 146.94-6.42 147.35-6.42L147.35-6.42Q147.77-6.42 148.06-6.09 148.35-5.76 148.35-5.31 148.35-4.86 148.11-4.31 147.87-3.76 147.38-3.15L147.38-3.15Q146.28-1.78 144.84-0.98L144.84-0.98Q142.23 0.46 139.03 0.46ZM175.16-5.93L175.16-5.93Q176.11-5.93 176.11-5.05L176.11-5.05Q176.11-4.39 175.26-3.49L175.26-3.49Q171.4 0.46 164.68 0.46L164.68 0.46Q158.65 0.46 154.53-3.17L154.53-3.17Q150.26-6.96 150.26-12.74L150.26-12.74Q150.26-18.65 154.11-22.46L154.11-22.46Q158.19-26.51 164.95-26.51L164.95-26.51Q170.37-26.51 174.06-23.22L174.06-23.22Q178.04-19.68 178.04-13.92L178.04-13.92Q178.04-13.09 177.99-12.16L177.99-12.16 161.88-12.16 161.88-1.68Q163.54-1.34 165.61-1.34L165.61-1.34Q170.01-1.34 173.11-4.25L173.11-4.25Q173.74-4.88 174.01-5.25L174.01-5.25Q174.57-5.93 175.16-5.93ZM168.64-13.94L168.64-24.27Q167.05-24.73 165.05-24.73 163.05-24.73 161.88-24.46L161.88-24.46 161.88-13.94 168.64-13.94ZM208.41-4.35L201.57-4.35Q197.1-4.35 195.47-4.42L195.47-4.42 194.76-2.73Q194.44-2.03 194.17-1.25L194.17-1.25Q193.61 0.27 192.61 0.27L192.61 0.27Q192.15 0.27 191.85-0.02 191.56-0.32 191.56-0.63L191.56-0.63Q191.56-1.17 192.02-1.83L192.02-1.83Q192.76-2.86 193.46-4.52L193.46-4.52Q191.36-4.71 191.36-5.74 191.36-6.76 192.56-6.76L192.56-6.76Q193.29-6.76 194.27-6.52L194.27-6.52 206.45-36.11 223.15 0 210.43 0 208.41-4.35ZM201.5-19.29L196.25-6.32Q198.59-6.13 200.45-6.13L200.45-6.13 207.6-6.13 201.5-19.29ZM266.31-23.58L266.31-3.54 266.38-1.05Q266.38-0.42 266.02-0.07 265.65 0.27 265.18 0.27 264.7 0.27 264.42-0.05 264.14-0.37 264.14-0.85L264.14-0.85Q264.14-1.34 264.26-1.95L264.26-1.95Q264.43-2.71 264.43-5.74L264.43-5.74 264.43-23.56 252.15-23.56 252.15 0 239.67 0 239.67-34.55 252.15-34.55 252.15-25.34Q257.42-25.34 260.56-25.34 263.7-25.34 264.43-25.37L264.43-25.37 264.43-29.61Q264.43-31.74 264.36-32.37L264.36-32.37 264.26-33.11Q264.24-33.45 264.24-33.69L264.24-33.69Q264.24-34.81 265.26-34.81L265.26-34.81Q265.63-34.81 266.02-34.52 266.41-34.23 266.41-33.54L266.41-33.54 266.31-30.42 266.31-25.46 267.85-25.68Q268.29-25.68 268.58-25.43 268.87-25.17 268.87-24.76L268.87-24.76Q268.87-23.8 267.36-23.68L267.36-23.68Q267.09-23.63 266.84-23.62 266.58-23.61 266.31-23.58L266.31-23.58ZM297.9-5.93L297.9-5.93Q298.85-5.93 298.85-5.05L298.85-5.05Q298.85-4.39 298-3.49L298-3.49Q294.14 0.46 287.43 0.46L287.43 0.46Q281.4 0.46 277.27-3.17L277.27-3.17Q273-6.96 273-12.74L273-12.74Q273-18.65 276.85-22.46L276.85-22.46Q280.93-26.51 287.69-26.51L287.69-26.51Q293.11-26.51 296.8-23.22L296.8-23.22Q300.78-19.68 300.78-13.92L300.78-13.92Q300.78-13.09 300.73-12.16L300.73-12.16 284.62-12.16 284.62-1.68Q286.28-1.34 288.35-1.34L288.35-1.34Q292.75-1.34 295.85-4.25L295.85-4.25Q296.48-4.88 296.75-5.25L296.75-5.25Q297.31-5.93 297.9-5.93ZM291.38-13.94L291.38-24.27Q289.79-24.73 287.79-24.73 285.79-24.73 284.62-24.46L284.62-24.46 284.62-13.94 291.38-13.94ZM323.31 0L323.31-1.61Q320.19 0.46 316.38 0.46L316.38 0.46Q311.33 0.46 308.27-2.08L308.27-2.08Q305.1-4.69 305.1-9.33L305.1-9.33Q305.1-13.43 308.25-16.06L308.25-16.06Q311.47-18.73 316.72-18.73L316.72-18.73Q320.24-18.73 323.31-17.38L323.31-17.38 323.31-24.1Q321.09-24.73 319.39-24.73 317.7-24.73 316.53-24.58 315.35-24.44 314.3-24.15L314.3-24.15Q312.03-23.51 310.86-22.44L310.86-22.44Q310.18-21.8 309.62-21.8 309.05-21.8 308.76-22.08 308.47-22.36 308.47-22.71 308.47-23.05 308.59-23.33 308.71-23.61 309.05-23.9L309.05-23.9Q309.79-24.54 311.5-25.17L311.5-25.17Q315.04-26.51 318.6-26.51L318.6-26.51Q329.44-26.51 332.44-21.34L332.44-21.34Q333.76-19.04 333.76-15.31L333.76-15.31 333.76 0 323.31 0ZM323.31-3.71L323.31-15.48Q320.24-16.97 317.18-16.97L317.18-16.97Q316.7-16.97 316.26-16.89L316.26-16.89 316.26-1.37Q316.38-1.34 316.53-1.34 316.67-1.34 316.82-1.34L316.82-1.34Q320.16-1.34 323.31-3.71L323.31-3.71ZM341.4 0L341.4-34.55 351.9-34.55 351.9 0 341.4 0ZM369.91 0.46L369.91 0.46Q360.34 0.46 360.34-8.28L360.34-8.28 360.32-24.29 357.51-24.17Q356.19-24.17 356.19-25.17 356.19-26.17 357.61-26.17L357.61-26.17 359.95-26.07 360.32-26.07 360.32-29.86 370.79-34.55 370.79-26.07 374.06-26.07 376.38-26.17Q377.82-26.17 377.82-25.15L377.82-25.15Q377.82-24.68 377.42-24.43 377.02-24.17 376.51-24.17L376.51-24.17 373.48-24.29 370.79-24.29 370.79-1.34Q373.65-1.39 375.55-2.98L375.55-2.98Q376.46-3.66 376.84-4.74 377.21-5.81 377.52-6.12 377.82-6.42 378.24-6.42L378.24-6.42Q378.65-6.42 378.95-6.09 379.24-5.76 379.24-5.31 379.24-4.86 379-4.31 378.75-3.76 378.26-3.15L378.26-3.15Q377.16-1.78 375.72-0.98L375.72-0.98Q373.11 0.46 369.91 0.46ZM403.33-26.51L403.33-26.51Q411.93-26.51 411.93-18.16L411.93-18.16 411.93 0 401.43 0 401.43-23.75Q400.99-24.05 400.27-24.05 399.55-24.05 398.77-23.71 397.99-23.36 397.13-22.75L397.13-22.75Q395.3-21.41 393.89-19.38L393.89-19.38 393.89 0 383.39 0 383.39-34.55 393.89-34.55 393.89-21.95Q398.06-26.51 403.33-26.51ZM424.45 5.76L424.45 5.76Q425.94 5.3 426.53 4.57L426.53 4.57Q427.36 3.59 428.53 1.05L428.53 1.05 429.09-0.24 415.78-26.07 426.89-26.07 433.82-11.33 437.83-20.68Q438.93-23.24 439.27-24.58 439.61-25.93 439.94-26.22 440.27-26.51 440.75-26.51 441.22-26.51 441.49-26.22 441.76-25.93 441.76-25.63 441.76-25.34 441.7-25.01 441.64-24.68 441.45-24.13 441.27-23.58 440.93-22.75L440.93-22.75 430.8 0.73Q428.99 4.98 427.33 6.71L427.33 6.71Q425.91 8.25 424.46 8.25 423.01 8.25 423.01 7.24 423.01 6.23 424.45 5.76ZM478.16-2.22L478.16-2.22Q479.45-2.22 479.45-1.12L479.45-1.12Q479.45-0.68 478.92-0.34 478.4 0 477.06 0L477.06 0 457.23 0 457.23-34.55 469.68-34.55 469.68-1.61 474.25-1.61Q475.79-1.61 476.9-1.92 478.01-2.22 478.16-2.22ZM489.14-30.35Q486.62-30.35 485.21-31.47 483.79-32.59 483.79-34.42L483.79-34.42Q483.79-35.96 485.36-37.06L485.36-37.06Q487.02-38.23 488.87-38.23 490.73-38.23 491.74-37.87 492.75-37.5 493.46-36.91L493.46-36.91Q494.88-35.72 494.88-34.13L494.88-34.13Q494.88-32.54 493.27-31.45L493.27-31.45Q491.65-30.35 489.14-30.35ZM484.01 0L484.01-26.07 494.51-26.07 494.51 0 484.01 0ZM518.31-24.19L518.31-24.19 515.7-24.29 512.99-24.29 512.99 0 502.49 0 502.52-24.29 502.13-24.29 499.81-24.19Q498.37-24.19 498.37-25.18 498.37-26.17 499.68-26.17L499.68-26.17 502.59-26.07Q503.1-30.49 506.52-32.84L506.52-32.84Q509.64-34.99 514.7-34.99L514.7-34.99Q519.43-34.99 521.22-33.11L521.22-33.11Q521.71-32.59 521.71-32.13L521.71-32.13Q521.71-31.05 520.61-31.05L520.61-31.05Q520.07-31.05 519.56-31.42L519.56-31.42 518.68-32.03Q517.26-33.08 515.63-33.18L515.63-33.18Q515.19-33.2 514.71-33.2 514.23-33.2 513.82-33.15 513.4-33.11 512.99-33.06L512.99-33.06 512.99-26.07 515.11-26.07 518.39-26.17Q519.7-26.17 519.7-25.18 519.7-24.19 518.31-24.19ZM545.53-5.93L545.53-5.93Q546.48-5.93 546.48-5.05L546.48-5.05Q546.48-4.39 545.63-3.49L545.63-3.49Q541.77 0.46 535.06 0.46L535.06 0.46Q529.03 0.46 524.9-3.17L524.9-3.17Q520.63-6.96 520.63-12.74L520.63-12.74Q520.63-18.65 524.49-22.46L524.49-22.46Q528.56-26.51 535.33-26.51L535.33-26.51Q540.75-26.51 544.43-23.22L544.43-23.22Q548.41-19.68 548.41-13.92L548.41-13.92Q548.41-13.09 548.36-12.16L548.36-12.16 532.25-12.16 532.25-1.68Q533.91-1.34 535.99-1.34L535.99-1.34Q540.38-1.34 543.48-4.25L543.48-4.25Q544.12-4.88 544.38-5.25L544.38-5.25Q544.95-5.93 545.53-5.93ZM539.01-13.94L539.01-24.27Q537.43-24.73 535.42-24.73 533.42-24.73 532.25-24.46L532.25-24.46 532.25-13.94 539.01-13.94ZM574.97-1Q574.33 0.27 573.28 0.27 572.24 0.27 572.24-0.81L572.24-0.81Q572.24-1.46 572.87-2.25L572.87-2.25Q574.14-3.76 575.29-5.74L575.29-5.74 576.53-7.96 562.03-34.55 576.26-34.55 583.25-19.82 589.5-30.93Q590.18-32.2 590.67-33.51 591.16-34.81 591.96-34.81L591.96-34.81Q592.96-34.81 592.96-33.81L592.96-33.81Q592.96-33.23 592.52-32.47L592.52-32.47 575.82-2.69Q575.56-2.2 575.38-1.88L575.38-1.88 574.97-1ZM595.72-13.18L595.72-13.18Q595.72-16.11 596.78-18.52 597.84-20.92 599.7-22.71L599.7-22.71Q603.7-26.51 609.76-26.51L609.76-26.51Q615.93-26.51 619.82-22.56L619.82-22.56Q623.53-18.82 623.53-13.11L623.53-13.11Q623.53-7.37 619.72-3.52L619.72-3.52Q615.79 0.46 609.66 0.46L609.66 0.46Q603.68 0.46 599.75-3.32L599.75-3.32Q595.72-7.23 595.72-13.18ZM608.98-24.71L608.98-1.37Q609.17-1.34 609.37-1.34L609.37-1.34 609.71-1.34Q614.64-1.34 617.98-4.39L617.98-4.39Q621.55-7.69 621.55-13.04L621.55-13.04Q621.55-18.26 618.2-21.51L618.2-21.51Q614.91-24.73 609.68-24.73L609.68-24.73 609.32-24.73Q609.15-24.73 608.98-24.71L608.98-24.71ZM638.32 0.46L638.32 0.46Q629.75 0.46 629.75-7.91L629.75-7.91 629.75-26.07 640.2-26.07 640.2-2.17Q640.44-2.05 640.81-2.05L640.81-2.05 641.61-2.05Q643.57-2.05 646.25-4.69L646.25-4.69Q647.06-5.49 647.77-6.45L647.77-6.45 647.77-26.07 658.27-26.07 658.27 0 647.77 0 647.77-3.76Q643.79 0.46 638.32 0.46ZM698.4-2.22L698.4-2.22Q699.69-2.22 699.69-1.12L699.69-1.12Q699.69-0.68 699.17-0.34 698.64 0 697.3 0L697.3 0 677.47 0 677.47-34.55 689.93-34.55 689.93-1.61 694.49-1.61Q696.03-1.61 697.14-1.92 698.25-2.22 698.4-2.22ZM702.01-13.18L702.01-13.18Q702.01-16.11 703.07-18.52 704.13-20.92 705.99-22.71L705.99-22.71Q709.99-26.51 716.05-26.51L716.05-26.51Q722.22-26.51 726.1-22.56L726.1-22.56Q729.82-18.82 729.82-13.11L729.82-13.11Q729.82-7.37 726.01-3.52L726.01-3.52Q722.08 0.46 715.95 0.46L715.95 0.46Q709.97 0.46 706.04-3.32L706.04-3.32Q702.01-7.23 702.01-13.18ZM715.26-24.71L715.26-1.37Q715.46-1.34 715.66-1.34L715.66-1.34 716-1.34Q720.93-1.34 724.27-4.39L724.27-4.39Q727.84-7.69 727.84-13.04L727.84-13.04Q727.84-18.26 724.49-21.51L724.49-21.51Q721.2-24.73 715.97-24.73L715.97-24.73 715.61-24.73Q715.44-24.73 715.26-24.71L715.26-24.71ZM745.34 1.1L731.94-26.07 743-26.07 749.64-12.38 753.81-20.68Q755.11-23.34 755.44-24.63 755.76-25.93 756.09-26.22 756.42-26.51 756.9-26.51 757.38-26.51 757.64-26.2 757.91-25.88 757.91-25.56 757.91-25.24 757.85-24.93 757.79-24.61 757.62-24.07L757.62-24.07Q757.25-23.07 756.08-20.61L756.08-20.61 745.34 1.1ZM784.82-5.93L784.82-5.93Q785.77-5.93 785.77-5.05L785.77-5.05Q785.77-4.39 784.91-3.49L784.91-3.49Q781.06 0.46 774.34 0.46L774.34 0.46Q768.31 0.46 764.19-3.17L764.19-3.17Q759.91-6.96 759.91-12.74L759.91-12.74Q759.91-18.65 763.77-22.46L763.77-22.46Q767.85-26.51 774.61-26.51L774.61-26.51Q780.03-26.51 783.72-23.22L783.72-23.22Q787.7-19.68 787.7-13.92L787.7-13.92Q787.7-13.09 787.65-12.16L787.65-12.16 771.53-12.16 771.53-1.68Q773.19-1.34 775.27-1.34L775.27-1.34Q779.66-1.34 782.76-4.25L782.76-4.25Q783.4-4.88 783.67-5.25L783.67-5.25Q784.23-5.93 784.82-5.93ZM778.3-13.94L778.3-24.27Q776.71-24.73 774.71-24.73 772.71-24.73 771.53-24.46L771.53-24.46 771.53-13.94 778.3-13.94ZM799.41-11.06L799.41-11.06Q798.7-11.06 798.36-12.39 798.02-13.72 797.68-14.9 797.34-16.09 796.9-17.24L796.9-17.24Q795.95-19.73 794.88-21.62 793.82-23.51 793.31-24.52 792.8-25.54 792.5-26.27L792.5-26.27Q792.04-27.54 792.04-28.83 792.04-30.13 792.58-31.24 793.11-32.35 794.09-33.18L794.09-33.18Q796.21-34.99 799.51-34.99L799.51-34.99Q803-34.99 805.05-33.28L805.05-33.28Q807.01-31.64 807.01-28.88L807.01-28.88Q807.01-27.44 806.68-26.55 806.35-25.66 805.83-24.68L805.83-24.68 804.47-22.17Q802.29-18.31 801.39-15.14L801.39-15.14Q801.07-13.96 800.8-12.79L800.8-12.79Q800.36-11.06 799.41-11.06ZM794.46-3.71L794.46-3.71Q794.46-5.79 795.8-6.96 797.14-8.13 799.49-8.13 801.83-8.13 803.2-6.84L803.2-6.84Q804.42-5.64 804.42-3.69L804.42-3.69Q804.42-1.95 803.05-0.78L803.05-0.78Q801.63 0.46 799.36 0.46L799.36 0.46Q795.87 0.46 794.8-2.03L794.8-2.03Q794.46-2.78 794.46-3.71Z" opacity="1" transform="matrix(1,0,0,1,0,0)" fill="#ffffff" class="undefined-text-1" data-fill-palette-color="secondary" id="text-1"></path></svg></g></svg></g></svg></g></svg></g><g><svg viewBox="0 0 103.3898177666855 255.336559049759" height="255.336559049759" width="103.3898177666855"><g><svg xmlns="http://www.w3.org/2000/svg" xmlns:xlink="http://www.w3.org/1999/xlink" version="1.1" x="0" y="0" viewBox="30.60000000000001 2 38.912499999999994 96.10021633315304" style="enable-background:new 0 0 100 100;" xml:space="preserve" height="255.336559049759" width="103.3898177666855" class="icon-icon-0" data-fill-palette-color="accent" id="icon-0"><g fill="#ffffff" data-fill-palette-color="accent"><path d="M49.4 36.3l0.4 1.3c0.5 0.7 1.3 1.2 2.2 1.4 0.1-0.3 0.2-0.9 0.2-1.9 0.1-1.4 0.2-4 1.1-6.7 0.7-1.9 1.8-3.8 2.4-4.8-0.6-0.4-1.2-0.7-1.4-0.9C54 24.4 54 23.6 54 23.6c0.3-0.4 0.6-0.8 0.8-1.2 0 0 0.1 0 0.1 0 0.2-0.8 0.5-2.7-1.1-4.2-2-1.8-5.2-3.3-5.2-3.3-2.7 1.3-3.8 3.5-3.8 3.5l0 0c0 0.2 0 0.3 0.1 0.4 0 0.3 0 0.6 0 0.9 0 2.6 1 4.7 3.1 5.6l0 0 0.2 1.9c0 0.1 0 0.2 0 0.2l0 0.1 0 0c-0.4 2-1.4 3.2-2.5 4.2-1.2 1.1-1.2 2.5-1.2 2.5-0.1 3.3 0.4 3.7 1.2 7.4 0 0.2 0.1 0.4 0.1 0.5 0.4 0.2 1.1 0.4 1.8 0.3l0.1 0c-0.4-1.5 0.2-2.5 0.2-2.5 0 1.4 0.2 2.2 0.5 2.5 0.6 0.2 1.8 0.5 3.1 0.1 0.1-1.3 0.3-2.3 0.3-2.9-1.4-0.3-2.1-1-2.4-1.5-0.2-0.3-0.3-0.6-0.2-1L49.4 36.3zM51.4 18.9c0.5 0 1 0.5 1 0.5-1 1.1-1.9 0-1.9 0S50.9 18.9 51.4 18.9zM45.9 19.3c0 0 0.4-0.5 0.9-0.5s1 0.5 1 0.5C46.8 20.4 45.9 19.3 45.9 19.3z" fill="#ffffff" data-fill-palette-color="accent"></path><path d="M47.6 9.7c0.1 0.4 0.2 1 0.6 1.4 0.1-0.2 0.3-0.4 0.5-0.4 0.2 0 0.3 0.1 0.4 0.3 0.6-0.6 1.5-1.5 2-2.1C51.7 7.9 52 6.8 52 6.8c-0.4 0.5-1 0.7-1 0.7 1-0.7 1.1-2.2 1.1-2.2-0.6 0.7-1.2 0.8-1.2 0.8s0.5-0.5 0.9-1.1 0.7-3 0.7-3c-2.4 1.1-3.3 4.1-3.3 4.1L49.3 5l-0.8 1.2C47.9 7.3 48 7.9 48 7.9l-0.4-0.7C47.5 8.2 47.5 9 47.6 9.7 47.6 9.6 47.6 9.7 47.6 9.7z" fill="#ffffff" data-fill-palette-color="accent"></path><path d="M44.5 17.9c1.2-2.1 4.1-3.9 4.1-3.9s3.7 1.9 5.8 3.6c1.5 1.3 1.4 3.6 1.3 4.7 0.3-0.2 0.6-0.4 0.8-0.7 0.9-1 3.8-4.8 1.3-8.1-1.8-2.5-4.3-3.5-6.1-4-1.1 1.2-2.1 2-2.4 2.3 0 0.1 0 0.3 0 0.4 0 0.7-0.3 1.3-0.7 1.3-0.4 0-0.7-0.6-0.7-1.3 0-0.1 0-0.2 0-0.3-0.2-0.2-0.8-0.7-1-1.7-4.1 2.7-3.8 4.8-3.6 5.7C43.5 16.5 44.1 17.3 44.5 17.9z" fill="#ffffff" data-fill-palette-color="accent"></path><path d="M33.5 27.4c0.1 0.3 0.2 0.6 0.2 1 0.2 0 0.8 0 1-0.2 0.3-0.3 0.2-0.5 0.1-0.8-0.1-0.2-0.6-0.9-0.6-1-0.6-0.5-1.4-1.1-1.9-1-0.2 0-0.4 0.1-0.7 0.3C32.4 25.9 33.3 26.9 33.5 27.4z" fill="#ffffff" data-fill-palette-color="accent"></path><path d="M41.4 33.8c0.1-2.2 0.5-4.1 0.7-5-0.3 0.1-0.5 0.3-0.8 0.4-1.1 0.6-2.5 1.9-2.7 2.9 0 0-0.5 0.9-1.2 2.2 1.1 5.1-0.2 8.5-0.2 8.5s0.3-0.8 0.1-3.2c-0.1-1.7-0.4-3.4-0.6-4.2-0.2 0.1-1.1 0.6-2.2 0.7-1 0-2.2-0.3-2.5-0.5-0.7 2.7-1.2 6.8 0.2 9.7 0 0 2.3 2.9 4.4 0.7 0 0 0 0 0 0 0-0.1 3.7-3.2 5.3-5.7C41.6 38.5 41.3 35.6 41.4 33.8z" fill="#ffffff" data-fill-palette-color="accent"></path><path d="M33 32.7c0 0 2.1 0.6 3.3-0.5 0 0 0.1-0.1 1.2-1.4 0.5-0.6 1.6-2.8 0.8-5.6 0 0-0.3-1-1-0.7-0.5 0.3-0.9 1.2-1 2.5 0 0-1.1-1.5-1.4-3.2s-1-3.7-1.8-3.6c-0.6 0.1-0.3 1.6-0.1 2.5 0.1 0.4 0.2 0.9 0.2 1.4l0.1 0.6c0 0 0.6 0.4 1.1 1 1.1 1.1 1.2 2.2 0.5 2.7-0.5 0.4-1 0.3-1.2 0.2-0.1 0.2-0.2 0.4-0.4 0.6-0.5 0.4-1 0.2-1.4-0.2-0.2-0.2-0.5-0.9-0.5-0.9s0.5 0.6 0.7 0.7 0.7 0.4 1 0.1c0.4-0.3 0.2-1.1 0-1.5-0.2-0.4-1.3-1.5-1.7-1.4-0.1 0-0.2 0.1-0.3 0.1-0.3 0.4-0.5 0.9-0.5 1.4C30.7 28.5 31.5 31.5 33 32.7z" fill="#ffffff" data-fill-palette-color="accent"></path><path d="M43.6 47.7c0 0 0.1 0 0.1 0.1 0 0 0 0 0 0 0 0 0 0 0 0 0 0 0.1 0 0.1 0.1 0 0 0.1 0 0.1 0.1 0 0 0.1 0 0.1 0.1 0.1 0 0.1 0.1 0.2 0.1 0 0 0.1 0 0.1 0.1 0.1 0 0.2 0.1 0.3 0.2 0 0 0 0 0.1 0 0.4 0.2 0.8 0.5 1.1 0.7 0 0 0 0 0 0 0.1 0 0.2 0.1 0.2 0.1 0 0 0 0 0 0 0 0 0.1 0 0.1 0 0 0 0 0 0 0 0.2 0.1 0.3 0.2 0.5 0.2 0.1 0.1 0.3 0.1 0.3 0.1 0.7 0.2 3.4 0.5 4.4 0.6 0.2-0.4 0.5-1 0.7-1.5 0.2-0.6 0.2-1.8 0.2-2.2-0.2-0.2-2.7-3-5-3 0 0-0.8 0-1 0.5-0.2 0.4 0.4 1.1 0.6 1.2 0.3 0.2 0.9 0.5 0.8 0.8-0.1 0.3-1 0.1-1.3 0 0 0 0 0 0 0C46.3 46 46 46 45.7 45.9c0 0 0 0 0 0l-2.4-0.6c0 0 0 0 0 0l0 0c0 0-0.2-0.1-0.5-0.1-0.5 0-1.8 0.3-1.3 0.9C41.7 46.4 42.6 47 43.6 47.7 43.6 47.7 43.6 47.7 43.6 47.7z" fill="#ffffff" data-fill-palette-color="accent"></path><path d="M42 33.8c-0.1 1 0.3 5.4 0.5 7.4 0.2 1.3 0.5 2.5 0.7 3.6 0.2 0 0.6 0.1 0.8 0.1 0.3 0 1 0.2 1.5 0.4-0.2-1.2-0.5-2.5-0.8-3.5-0.9-3.2-1.1-6.8-1.1-8.1s2.3-3.2 2.7-3.9c0.3-0.5 1.2-3.3 1.4-4-2.2 0-5 2.1-5 2.1s-0.1 0.3-0.1 0.7c0 0 0 0 0 0l0 0C42.6 28.5 42.1 32.7 42 33.8z" fill="#ffffff" data-fill-palette-color="accent"></path><path d="M43.8 48.6c0.3 1.9 0.4 3.1 0.4 3.1s1.4 1.5 2.3-1c0 0 0-0.1 0-0.1 0-0.1 0-0.3-0.1-0.5-0.1-0.1-0.3-0.1-0.4-0.2C45.2 49.5 44.4 49 43.8 48.6z" fill="#ffffff" data-fill-palette-color="accent"></path><path d="M49.7 43.5c0.3 0.1 0.5 0.3 0.8 0.4 0.3 0.2 0.6 0.4 0.8 0.6 0-0.5 0.1-1 0.1-1.5C51.2 43.4 50.6 43.6 49.7 43.5z" fill="#ffffff" data-fill-palette-color="accent"></path><path d="M59 28.3c0.3-0.4 0.9-0.6 1.4-0.5l3.3 0.6c0 0-3.8-3-6.9-2.6 0 0-0.1 0.1-0.3 0.3-0.5 0.8-2.2 3.9-2.7 5.7-0.5 2-0.7 5.9-1 7.4-0.1 0.7-0.5 3.3-0.7 6 0.5 0.5 0.8 0.9 0.8 0.9s1.4 0.1 2.6-0.1c1.2-0.2 4.8-0.9 5.1-0.8 0 0-0.4-0.9-0.6-2.3-3.9-4.3-2.6-10.4-2.1-11.9C58.4 29.3 59 28.3 59 28.3z" fill="#ffffff" data-fill-palette-color="accent"></path><path d="M46.8 43.1c-0.3 0-0.7-0.1-1-0.4 0.1 0.3 0.1 0.6 0.2 0.9C46.2 43.3 46.5 43.2 46.8 43.1z" fill="#ffffff" data-fill-palette-color="accent"></path><path d="M68.5 37c-0.6-1.3-0.8-2.1-0.8-2.1 0.3-4.8-4.7-6.3-7.8-6.2l-0.2-0.1-0.6 1.2c0 0-1.2 1.8-1.2 6.2 0 2.6 1 4.5 1.9 5.7 0-0.2 0-0.5 0-0.7 0-2.4 0.3-3.3 0.3-3.3l-0.7-1.8c0 0 1.3 1.3 1.3 1.8s-0.6 2.1 0 5.9c0 0 0.3 1 0.9 2 0 0-2.6 0.6-5.1 0.9 0.1 0.4 0.3 1.5 0.1 2.5-0.2 0.9-0.5 1.8-0.6 2.3 2.7 0.7 5.9 1.6 7.1 1.9 1.8 0.1 3.1-0.3 3.8-0.5 1.7-0.6 1.3-4.8 1.3-5.6 0-0.9 1.1-3.5 1.1-3.5C69.9 41.8 69.1 38.2 68.5 37z" fill="#ffffff" data-fill-palette-color="accent"></path><path d="M52.1 51.3c0 0.1 0.1 0.2 0.1 0.3 0 0 1 2.2 2.3 2.2 0.9 0 2.9-0.5 4.1-0.8-2.3-0.6-4.8-1.3-5.4-1.4C52.8 51.5 52.5 51.4 52.1 51.3z" fill="#ffffff" data-fill-palette-color="accent"></path><path d="M64.1 75.6c3-3.4 1.7-9.4 0.6-11.5-0.6-1.3-1.7-2.9-2.5-4.7-0.7-1.8-0.9-3.7-0.2-5.4-0.6-0.2-1.3-0.3-2-0.5-0.5 0.2-4 1.4-5.7 1.1-1.9-0.2-2.7-2.2-2.8-2.8 0-0.2-0.1-0.4-0.1-0.6-0.4-0.1-0.9-0.2-1.4-0.3-0.9-0.2-1.9-0.2-2.8-0.5 0.1 1.7-0.4 2.3-0.4 2.3s-0.4 0.2-1.5 0.8-2.3 2.5-1.7 7.4c0 0 0.7 4 4.9 6.7s4.9 5.9 1.2 10-0.1 10.1 0.7 10.8 2.4 3 5.8 3.1c3.4 0.1 6.5 3 5.9 4.6s-2.7 2-2.7 2 5.4 0.1 5.6-4c0.1-2.7-0.4-4.5-5.6-7.7C54.1 83 61.1 79.1 64.1 75.6z" fill="#ffffff" data-fill-palette-color="accent"></path></g></svg></g></svg></g></svg></g><defs></defs></svg><rect width="395.52" height="189.4621386316832" fill="none" stroke="none" visibility="hidden"></rect></g></svg></g></svg>